# xmcd
#
# Track frame offsets: 
#        182
#        43417
#        100370
#        123765
#        154972
#        179252
#
# Disc length: 2741 seconds
#
# Revision: 2
# Processed by: cddbd v1.5.2PL0 Copyright (c) Steve Scherf et al.
# Submitted via: ExactAudioCopy v1.3
#
DISCID=4d0ab306
DTITLE=Jimi Hendrix - Band Of Gypsys
DYEAR=1970
DGENRE=Blues Rock
TTITLE0=Who Knows
TTITLE1=Machine Gun
TTITLE2=Changes
TTITLE3=Power To Love
TTITLE4=Message Of Love
TTITLE5=We Gotta Live Together
EXTD=
EXTT0=
EXTT1=
EXTT2=
EXTT3=
EXTT4=
EXTT5=
PLAYORDER=
